<svg xmlns="http://www.w3.org/2000/svg" viewBox="0 0 300 45"><defs><style>.cls-1{isolation:isolate;}.cls-2{fill:#fff;}.cls-3{font-size:15px;fill:#191919;font-family:AppleSDGothicNeoB00;}.cls-4{fill:#4285f4;}.cls-4,.cls-5,.cls-6,.cls-7{fill-rule:evenodd;}.cls-5{fill:#34a853;}.cls-6{fill:#fbbc05;}.cls-7{fill:#ea4335;}.cls-8{fill:none;}</style></defs><g id="레이어_2" data-name="레이어 2"><g id="국문"><g id="Medium_and_Wide_300px_X_45px_" data-name="Medium and Wide (300px X 45px)"><g id="Rounded_Rectangle_2" data-name="Rounded Rectangle 2" class="cls-1"><g id="Rounded_Rectangle_2-2" data-name="Rounded Rectangle 2"><rect class="cls-2" width="300" height="45" rx="6.04"/></g></g><text class="cls-3" transform="translate(112.5 28.46)">구글로 시작하기</text><g id="logo_googleg_48dp" data-name="logo googleg 48dp"><path id="Shape" class="cls-4" d="M33.64,22.7a11,11,0,0,0-.16-1.84H25v3.49h4.84a4.15,4.15,0,0,1-1.79,2.71v2.26H31a8.78,8.78,0,0,0,2.68-6.62Z"/><path id="Shape-2" data-name="Shape" class="cls-5" d="M25,31.5a8.62,8.62,0,0,0,6-2.18l-2.91-2.26a5.43,5.43,0,0,1-3.05.86,5.37,5.37,0,0,1-5-3.71H17v2.33a9,9,0,0,0,8,5Z"/><path id="Shape-3" data-name="Shape" class="cls-6" d="M20,24.21a5.36,5.36,0,0,1,0-3.42V18.46H17a9,9,0,0,0,0,8.08l3-2.33Z"/><path id="Shape-4" data-name="Shape" class="cls-7" d="M25,17.08a4.83,4.83,0,0,1,3.44,1.35L31,15.84a8.65,8.65,0,0,0-6-2.34,9,9,0,0,0-8,5l3,2.33a5.37,5.37,0,0,1,5-3.71Z"/><path id="Shape-5" data-name="Shape" class="cls-8" d="M16,13.5H34v18H16Z"/></g></g></g></g></svg>